<?xml version="1.0" encoding="UTF-8" standalone="no"?>
<!-- Created with Inkscape (http://www.inkscape.org/) -->

<svg
   xmlns:dc="http://purl.org/dc/elements/1.1/"
   xmlns:cc="http://creativecommons.org/ns#"
   xmlns:rdf="http://www.w3.org/1999/02/22-rdf-syntax-ns#"
   xmlns:svg="http://www.w3.org/2000/svg"
   xmlns="http://www.w3.org/2000/svg"
   version="1.1"
   width="546.25"
   height="195"
   id="svg2"
   xml:space="preserve"><metadata
     id="metadata8"><rdf:RDF><cc:Work
         rdf:about=""><dc:format>image/svg+xml</dc:format><dc:type
           rdf:resource="http://purl.org/dc/dcmitype/StillImage" /><dc:title></dc:title></cc:Work></rdf:RDF></metadata><defs
     id="defs6"><clipPath
       id="clipPath16"><path
         d="M 0,0 437,0 437,156 0,156 0,0 z"
         id="path18" /></clipPath><clipPath
       id="clipPath30"><path
         d="M 0,0 0,156 437,156 437,0 0,0 z"
         id="path32" /></clipPath><clipPath
       id="clipPath36"><path
         d="M 0,0 437,0 437,156 0,156 0,0 z"
         id="path38" /></clipPath><linearGradient
       x1="450"
       y1="260"
       x2="490"
       y2="300"
       id="linearGradient50"
       gradientUnits="userSpaceOnUse"
       gradientTransform="matrix(1,0,0,-1,-405,393)"><stop
         id="stop52"
         style="stop-color:#e8eef7;stop-opacity:1"
         offset="0" /><stop
         id="stop54"
         style="stop-color:#b7c9e3;stop-opacity:1"
         offset="1" /></linearGradient><linearGradient
       x1="570"
       y1="260"
       x2="610"
       y2="300"
       id="linearGradient66"
       gradientUnits="userSpaceOnUse"
       gradientTransform="matrix(1,0,0,-1,-405,393)"><stop
         id="stop68"
         style="stop-color:#e8eef7;stop-opacity:1"
         offset="0" /><stop
         id="stop70"
         style="stop-color:#b7c9e3;stop-opacity:1"
         offset="1" /></linearGradient><linearGradient
       x1="690"
       y1="260"
       x2="730"
       y2="300"
       id="linearGradient82"
       gradientUnits="userSpaceOnUse"
       gradientTransform="matrix(1,0,0,-1,-405,393)"><stop
         id="stop84"
         style="stop-color:#e8eef7;stop-opacity:1"
         offset="0" /><stop
         id="stop86"
         style="stop-color:#b7c9e3;stop-opacity:1"
         offset="1" /></linearGradient><linearGradient
       x1="807"
       y1="260"
       x2="847"
       y2="300"
       id="linearGradient98"
       gradientUnits="userSpaceOnUse"
       gradientTransform="matrix(1,0,0,-1,-405,393)"><stop
         id="stop100"
         style="stop-color:#e8eef7;stop-opacity:1"
         offset="0" /><stop
         id="stop102"
         style="stop-color:#b7c9e3;stop-opacity:1"
         offset="1" /></linearGradient><linearGradient
       x1="807"
       y1="266"
       x2="875"
       y2="334"
       id="linearGradient112"
       gradientUnits="userSpaceOnUse"
       gradientTransform="matrix(1,0,0,-1,-405,393)"><stop
         id="stop114"
         style="stop-color:#e8eef7;stop-opacity:1"
         offset="0" /><stop
         id="stop116"
         style="stop-color:#b7c9e3;stop-opacity:1"
         offset="0.5" /><stop
         id="stop118"
         style="stop-color:#e8eef7;stop-opacity:1"
         offset="1" /></linearGradient><clipPath
       id="clipPath188"><path
         d="M 0,0 0,156 437,156 437,0 0,0 z"
         id="path190" /></clipPath></defs><g
     transform="scale(1.25,1.25)"
     id="g10"><g
       id="g12"><g
         clip-path="url(#clipPath16)"
         id="g14"><g
           id="g20"><g
             id="g22" /></g><g
           id="g24"><g
             id="g26"><g
               clip-path="url(#clipPath30)"
               id="g28"><g
                 clip-path="url(#clipPath36)"
                 id="g34"><g
                   transform="translate(-405,-237)"
                   id="g40"><path
                     d="m 405,237 437,0 0,156 -437,0 0,-156 z"
                     id="path42"
                     style="fill:#ffffff;fill-opacity:1;fill-rule:nonzero;stroke:none" /><g
                     id="g44"><g
                       id="g46"><g
                         id="g48"><path
                           d="m 470,300 c 0,11.05 -8.95,20 -20,20 -11.05,0 -20,-8.95 -20,-20 0,-11.05 8.95,-20 20,-20 11.05,0 20,8.95 20,20 z"
                           id="path56"
                           style="fill:url(#linearGradient50);fill-opacity:1;fill-rule:nonzero;stroke:none" /></g><path
                         d="m 470,300 c 0,11.05 -8.95,20 -20,20 -11.05,0 -20,-8.95 -20,-20 0,-11.05 8.95,-20 20,-20 11.05,0 20,8.95 20,20 z"
                         id="path58"
                         style="fill:none;stroke:#000000;stroke-width:1;stroke-linecap:butt;stroke-linejoin:miter;stroke-miterlimit:1.45000005;stroke-opacity:1;stroke-dasharray:none" /><path
                         d="m 445.57,300.87 c 0,0.79 0.16,1.42 0.48,1.87 0.32,0.45 0.77,0.68 1.35,0.68 0.57,0 1.02,-0.23 1.35,-0.68 0.33,-0.45 0.49,-1.08 0.49,-1.87 0,-0.79 -0.16,-1.41 -0.49,-1.86 -0.33,-0.44 -0.78,-0.67 -1.35,-0.67 -0.58,0 -1.03,0.23 -1.35,0.67 -0.32,0.45 -0.48,1.07 -0.48,1.86 z m 3.67,2.3 c -0.23,0.39 -0.52,0.67 -0.86,0.87 -0.34,0.19 -0.76,0.29 -1.25,0.29 -0.79,0 -1.44,-0.32 -1.94,-0.96 -0.5,-0.63 -0.75,-1.47 -0.75,-2.5 0,-1.03 0.25,-1.86 0.75,-2.49 0.5,-0.63 1.15,-0.94 1.94,-0.94 0.49,0 0.91,0.09 1.25,0.28 0.34,0.18 0.63,0.48 0.86,0.87 l 0,-1 1.08,0 0,9.06 -1.08,0 0,-3.48 z m 4.62,-3.41 c -0.4,0 -0.69,0.18 -0.88,0.52 -0.21,0.33 -0.31,0.83 -0.31,1.5 0,0.68 0.1,1.18 0.31,1.51 0.19,0.35 0.48,0.52 0.88,0.52 0.39,0 0.69,-0.17 0.89,-0.52 0.19,-0.33 0.29,-0.83 0.29,-1.51 0,-0.67 -0.1,-1.17 -0.29,-1.5 -0.2,-0.34 -0.5,-0.52 -0.89,-0.52 z m 0,-0.51 c 0.63,0 1.11,0.21 1.44,0.65 0.33,0.43 0.49,1.06 0.49,1.88 0,0.83 -0.16,1.47 -0.49,1.9 -0.33,0.43 -0.81,0.65 -1.44,0.65 -0.64,0 -1.12,-0.22 -1.45,-0.65 -0.33,-0.43 -0.49,-1.07 -0.49,-1.9 0,-0.82 0.16,-1.45 0.49,-1.88 0.33,-0.44 0.81,-0.65 1.45,-0.65 z"
                         id="path60"
                         style="fill:#000000;fill-opacity:1;fill-rule:nonzero;stroke:none" /></g><g
                       id="g62"><g
                         id="g64"><path
                           d="m 590,300 c 0,11.05 -8.95,20 -20,20 -11.05,0 -20,-8.95 -20,-20 0,-11.05 8.95,-20 20,-20 11.05,0 20,8.95 20,20 z"
                           id="path72"
                           style="fill:url(#linearGradient66);fill-opacity:1;fill-rule:nonzero;stroke:none" /></g><path
                         d="m 590,300 c 0,11.05 -8.95,20 -20,20 -11.05,0 -20,-8.95 -20,-20 0,-11.05 8.95,-20 20,-20 11.05,0 20,8.95 20,20 z"
                         id="path74"
                         style="fill:none;stroke:#000000;stroke-width:1;stroke-linecap:butt;stroke-linejoin:miter;stroke-miterlimit:1.45000005;stroke-opacity:1;stroke-dasharray:none" /><path
                         d="m 565.57,300.87 c 0,0.79 0.16,1.42 0.48,1.87 0.32,0.45 0.77,0.68 1.35,0.68 0.57,0 1.02,-0.23 1.35,-0.68 0.33,-0.45 0.49,-1.08 0.49,-1.87 0,-0.79 -0.16,-1.41 -0.49,-1.86 -0.33,-0.44 -0.78,-0.67 -1.35,-0.67 -0.58,0 -1.03,0.23 -1.35,0.67 -0.32,0.45 -0.48,1.07 -0.48,1.86 z m 3.67,2.3 c -0.23,0.39 -0.52,0.67 -0.86,0.87 -0.34,0.19 -0.76,0.29 -1.25,0.29 -0.79,0 -1.44,-0.32 -1.94,-0.96 -0.5,-0.63 -0.75,-1.47 -0.75,-2.5 0,-1.03 0.25,-1.86 0.75,-2.49 0.5,-0.63 1.15,-0.94 1.94,-0.94 0.49,0 0.91,0.09 1.25,0.28 0.34,0.18 0.63,0.48 0.86,0.87 l 0,-1 1.08,0 0,9.06 -1.08,0 0,-3.48 z m 3.09,0.42 1.18,0 0,-3.58 -1.31,0.24 0,-0.67 1.36,-0.24 0.8,0 0,4.25 1.2,0 0,0.64 -3.23,0 0,-0.64 z"
                         id="path76"
                         style="fill:#000000;fill-opacity:1;fill-rule:nonzero;stroke:none" /></g><g
                       id="g78"><g
                         id="g80"><path
                           d="m 710,300 c 0,11.05 -8.95,20 -20,20 -11.05,0 -20,-8.95 -20,-20 0,-11.05 8.95,-20 20,-20 11.05,0 20,8.95 20,20 z"
                           id="path88"
                           style="fill:url(#linearGradient82);fill-opacity:1;fill-rule:nonzero;stroke:none" /></g><path
                         d="m 710,300 c 0,11.05 -8.95,20 -20,20 -11.05,0 -20,-8.95 -20,-20 0,-11.05 8.95,-20 20,-20 11.05,0 20,8.95 20,20 z"
                         id="path90"
                         style="fill:none;stroke:#000000;stroke-width:1;stroke-linecap:butt;stroke-linejoin:miter;stroke-miterlimit:1.45000005;stroke-opacity:1;stroke-dasharray:none" /><path
                         d="m 685.57,300.87 c 0,0.79 0.16,1.42 0.48,1.87 0.32,0.45 0.77,0.68 1.35,0.68 0.57,0 1.02,-0.23 1.35,-0.68 0.33,-0.45 0.49,-1.08 0.49,-1.87 0,-0.79 -0.16,-1.41 -0.49,-1.86 -0.33,-0.44 -0.78,-0.67 -1.35,-0.67 -0.58,0 -1.03,0.23 -1.35,0.67 -0.32,0.45 -0.48,1.07 -0.48,1.86 z m 3.67,2.3 c -0.23,0.39 -0.52,0.67 -0.86,0.87 -0.34,0.19 -0.76,0.29 -1.25,0.29 -0.79,0 -1.44,-0.32 -1.94,-0.96 -0.5,-0.63 -0.75,-1.47 -0.75,-2.5 0,-1.03 0.25,-1.86 0.75,-2.49 0.5,-0.63 1.15,-0.94 1.94,-0.94 0.49,0 0.91,0.09 1.25,0.28 0.34,0.18 0.63,0.48 0.86,0.87 l 0,-1 1.08,0 0,9.06 -1.08,0 0,-3.48 z m 3.74,0.41 2.49,0 0,0.65 -3.52,0 0,-0.64 c 0.14,-0.11 0.33,-0.28 0.58,-0.5 1.34,-1.2 2.01,-1.98 2.01,-2.34 0,-0.26 -0.1,-0.47 -0.3,-0.63 -0.2,-0.15 -0.47,-0.23 -0.81,-0.23 -0.2,0 -0.43,0.03 -0.66,0.1 -0.23,0.07 -0.49,0.17 -0.77,0.3 l 0,-0.71 c 0.29,-0.12 0.56,-0.2 0.83,-0.25 0.26,-0.06 0.5,-0.08 0.73,-0.08 0.56,0 1.01,0.13 1.35,0.38 0.34,0.26 0.51,0.6 0.51,1.02 0,0.55 -0.65,1.37 -1.94,2.49 -0.22,0.19 -0.38,0.33 -0.5,0.44 z"
                         id="path92"
                         style="fill:#000000;fill-opacity:1;fill-rule:nonzero;stroke:none" /></g><g
                       id="g94"><g
                         id="g96"><path
                           d="m 827,300 c 0,11.05 -8.95,20 -20,20 -11.05,0 -20,-8.95 -20,-20 0,-11.05 8.95,-20 20,-20 11.05,0 20,8.95 20,20 z"
                           id="path104"
                           style="fill:url(#linearGradient98);fill-opacity:1;fill-rule:nonzero;stroke:none" /></g><path
                         d="m 827,300 c 0,11.05 -8.95,20 -20,20 -11.05,0 -20,-8.95 -20,-20 0,-11.05 8.95,-20 20,-20 11.05,0 20,8.95 20,20 z"
                         id="path106"
                         style="fill:none;stroke:#000000;stroke-width:1;stroke-linecap:butt;stroke-linejoin:miter;stroke-miterlimit:1.45000005;stroke-opacity:1;stroke-dasharray:none" /></g><g
                       id="g108"><g
                         id="g110"><path
                           d="m 824,300 c 0,9.39 -7.61,17 -17,17 -9.39,0 -17,-7.61 -17,-17 0,-9.39 7.61,-17 17,-17 9.39,0 17,7.61 17,17 z"
                           id="path120"
                           style="fill:url(#linearGradient112);fill-opacity:1;fill-rule:nonzero;stroke:none" /></g><path
                         d="m 824,300 c 0,9.39 -7.61,17 -17,17 -9.39,0 -17,-7.61 -17,-17 0,-9.39 7.61,-17 17,-17 9.39,0 17,7.61 17,17 z"
                         id="path122"
                         style="fill:none;stroke:#000000;stroke-width:1;stroke-linecap:butt;stroke-linejoin:miter;stroke-miterlimit:1.45000005;stroke-opacity:1;stroke-dasharray:none" /><path
                         d="m 802.57,300.87 c 0,0.79 0.16,1.42 0.48,1.87 0.32,0.45 0.77,0.68 1.35,0.68 0.57,0 1.02,-0.23 1.35,-0.68 0.33,-0.45 0.49,-1.08 0.49,-1.87 0,-0.79 -0.16,-1.41 -0.49,-1.86 -0.33,-0.44 -0.78,-0.67 -1.35,-0.67 -0.58,0 -1.03,0.23 -1.35,0.67 -0.32,0.45 -0.48,1.07 -0.48,1.86 z m 3.67,2.3 c -0.23,0.39 -0.52,0.67 -0.86,0.87 -0.34,0.19 -0.76,0.29 -1.25,0.29 -0.79,0 -1.44,-0.32 -1.94,-0.96 -0.5,-0.63 -0.75,-1.47 -0.75,-2.5 0,-1.03 0.25,-1.86 0.75,-2.49 0.5,-0.63 1.15,-0.94 1.94,-0.94 0.49,0 0.91,0.09 1.25,0.28 0.34,0.18 0.63,0.48 0.86,0.87 l 0,-1 1.08,0 0,9.06 -1.08,0 0,-3.48 z m 5.24,-1.58 c 0.36,0.07 0.63,0.22 0.83,0.43 0.2,0.22 0.3,0.48 0.3,0.79 0,0.49 -0.19,0.87 -0.56,1.13 -0.37,0.26 -0.9,0.39 -1.6,0.39 -0.22,0 -0.45,-0.02 -0.7,-0.07 -0.24,-0.04 -0.5,-0.1 -0.77,-0.17 l 0,-0.72 c 0.2,0.11 0.42,0.19 0.65,0.24 0.23,0.05 0.48,0.08 0.74,0.08 0.43,0 0.76,-0.08 0.99,-0.23 0.24,-0.15 0.36,-0.37 0.36,-0.65 0,-0.28 -0.11,-0.5 -0.33,-0.65 -0.22,-0.15 -0.54,-0.22 -0.96,-0.22 l -0.5,0 0,-0.63 0.55,0 c 0.37,0 0.64,-0.06 0.83,-0.19 0.19,-0.12 0.28,-0.3 0.28,-0.54 0,-0.22 -0.1,-0.39 -0.29,-0.51 -0.19,-0.12 -0.47,-0.18 -0.85,-0.18 -0.16,0 -0.33,0.02 -0.53,0.05 -0.2,0.04 -0.45,0.1 -0.77,0.18 l 0,-0.67 c 0.28,-0.06 0.55,-0.11 0.8,-0.15 0.25,-0.03 0.48,-0.05 0.7,-0.05 0.57,0 1.01,0.11 1.34,0.34 0.33,0.23 0.49,0.54 0.49,0.92 0,0.27 -0.09,0.5 -0.26,0.69 -0.18,0.19 -0.43,0.32 -0.74,0.39 z"
                         id="path124"
                         style="fill:#000000;fill-opacity:1;fill-rule:nonzero;stroke:none" /></g><path
                       d="m 429.99,300 -9.99,0 0,0 1.99,0"
                       id="path126"
                       style="fill:none;stroke:#000000;stroke-width:1;stroke-linecap:butt;stroke-linejoin:miter;stroke-miterlimit:1.45000005;stroke-opacity:1;stroke-dasharray:none" /><path
                       d="m 429.99,300 -12,-5 3,5 -3,5 12,-5 z"
                       id="path128"
                       style="fill:#000000;fill-opacity:1;fill-rule:nonzero;stroke:none" /><path
                       d="m 470.01,300 72.02,0"
                       id="path130"
                       style="fill:none;stroke:#000000;stroke-width:1;stroke-linecap:butt;stroke-linejoin:miter;stroke-miterlimit:1.45000005;stroke-opacity:1;stroke-dasharray:none" /><path
                       d="m 550.03,300 -12,-5 3,5 -3,5 12,-5 z"
                       id="path132"
                       style="fill:#000000;fill-opacity:1;fill-rule:nonzero;stroke:none" /><path
                       d="m 509.4,258.44 1.19,0 0,8.75 -1.19,0 0,-8.75 z"
                       id="path134"
                       style="fill:#000000;fill-opacity:1;fill-rule:nonzero;stroke:none" /><path
                       d="m 509.4,272.4 1.19,0 0,8.75 -1.19,0 0,-8.75 z"
                       id="path136"
                       style="fill:#000000;fill-opacity:1;fill-rule:nonzero;stroke:none" /><path
                       d="m 510,287.15 c -0.61,0 -1.06,0.3 -1.37,0.9 -0.31,0.6 -0.46,1.51 -0.46,2.71 0,1.2 0.15,2.1 0.46,2.7 0.31,0.6 0.76,0.9 1.37,0.9 0.61,0 1.07,-0.3 1.38,-0.9 0.31,-0.6 0.46,-1.5 0.46,-2.7 0,-1.2 -0.15,-2.11 -0.46,-2.71 -0.31,-0.6 -0.77,-0.9 -1.38,-0.9 z m 0,-0.93 c 0.97,0 1.72,0.38 2.25,1.16 0.52,0.78 0.78,1.9 0.78,3.38 0,1.47 -0.26,2.59 -0.78,3.37 -0.53,0.78 -1.28,1.16 -2.25,1.16 -0.98,0 -1.73,-0.38 -2.25,-1.16 -0.51,-0.78 -0.77,-1.9 -0.77,-3.37 0,-1.48 0.26,-2.6 0.77,-3.38 0.52,-0.78 1.27,-1.16 2.25,-1.16 z"
                       id="path138"
                       style="fill:#000000;fill-opacity:1;fill-rule:nonzero;stroke:none" /><path
                       d="m 590.01,300 72.02,0"
                       id="path140"
                       style="fill:none;stroke:#000000;stroke-width:1;stroke-linecap:butt;stroke-linejoin:miter;stroke-miterlimit:1.45000005;stroke-opacity:1;stroke-dasharray:none" /><path
                       d="m 670.03,300 -12,-5 3,5 -3,5 12,-5 z"
                       id="path142"
                       style="fill:#000000;fill-opacity:1;fill-rule:nonzero;stroke:none" /><path
                       d="m 622.66,257.44 0,3.25 -1,0 0,-3.25 1,0 z m 7.38,3.45 c 0.27,-0.49 0.59,-0.85 0.97,-1.08 0.37,-0.23 0.82,-0.34 1.33,-0.34 0.68,0 1.21,0.24 1.58,0.72 0.37,0.47 0.56,1.15 0.56,2.03 l 0,3.97 -1.08,0 0,-3.93 c 0,-0.63 -0.11,-1.1 -0.34,-1.4 -0.22,-0.3 -0.56,-0.46 -1.02,-0.46 -0.56,0 -1.01,0.19 -1.33,0.56 -0.32,0.37 -0.48,0.88 -0.48,1.52 l 0,3.71 -1.08,0 0,-3.93 c 0,-0.63 -0.11,-1.1 -0.34,-1.4 -0.22,-0.3 -0.57,-0.46 -1.04,-0.46 -0.55,0 -0.99,0.19 -1.31,0.56 -0.32,0.37 -0.48,0.88 -0.48,1.52 l 0,3.71 -1.08,0 0,-6.57 1.08,0 0,1.02 c 0.25,-0.4 0.54,-0.69 0.89,-0.88 0.34,-0.2 0.75,-0.29 1.22,-0.29 0.48,0 0.88,0.12 1.21,0.36 0.34,0.24 0.58,0.59 0.74,1.06 z"
                       id="path144"
                       style="fill:#000000;fill-opacity:1;fill-rule:nonzero;stroke:none" /><path
                       d="m 622.66,271.4 0,3.25 -1,0 0,-3.25 1,0 z m 7.38,3.46 c 0.27,-0.49 0.59,-0.85 0.97,-1.08 0.37,-0.23 0.82,-0.34 1.33,-0.34 0.68,0 1.21,0.24 1.58,0.71 0.37,0.48 0.56,1.16 0.56,2.04 l 0,3.96 -1.08,0 0,-3.92 c 0,-0.63 -0.11,-1.1 -0.34,-1.4 -0.22,-0.31 -0.56,-0.46 -1.02,-0.46 -0.56,0 -1.01,0.19 -1.33,0.56 -0.32,0.37 -0.48,0.88 -0.48,1.52 l 0,3.7 -1.08,0 0,-3.92 c 0,-0.63 -0.11,-1.1 -0.34,-1.4 -0.22,-0.31 -0.57,-0.46 -1.04,-0.46 -0.55,0 -0.99,0.19 -1.31,0.56 -0.32,0.37 -0.48,0.88 -0.48,1.52 l 0,3.7 -1.08,0 0,-6.56 1.08,0 0,1.02 c 0.25,-0.4 0.54,-0.69 0.89,-0.89 0.34,-0.19 0.75,-0.28 1.22,-0.28 0.48,0 0.88,0.12 1.21,0.35 0.34,0.24 0.58,0.6 0.74,1.07 z"
                       id="path146"
                       style="fill:#000000;fill-opacity:1;fill-rule:nonzero;stroke:none" /><path
                       d="m 628,286.15 c -0.61,0 -1.06,0.3 -1.37,0.9 -0.31,0.6 -0.46,1.51 -0.46,2.71 0,1.2 0.15,2.1 0.46,2.7 0.31,0.6 0.76,0.9 1.37,0.9 0.61,0 1.07,-0.3 1.38,-0.9 0.31,-0.6 0.46,-1.5 0.46,-2.7 0,-1.2 -0.15,-2.11 -0.46,-2.71 -0.31,-0.6 -0.77,-0.9 -1.38,-0.9 z m 0,-0.93 c 0.97,0 1.72,0.38 2.25,1.16 0.52,0.78 0.78,1.9 0.78,3.38 0,1.47 -0.26,2.59 -0.78,3.37 -0.53,0.78 -1.28,1.16 -2.25,1.16 -0.98,0 -1.73,-0.38 -2.25,-1.16 -0.51,-0.78 -0.77,-1.9 -0.77,-3.37 0,-1.48 0.26,-2.6 0.77,-3.38 0.52,-0.78 1.27,-1.16 2.25,-1.16 z"
                       id="path148"
                       style="fill:#000000;fill-opacity:1;fill-rule:nonzero;stroke:none" /><path
                       d="m 585.09,313.18 14.91,9.32 15,5.62 15,1.88 15,-1.88 15,-5.62 8.13,-5.08"
                       id="path150"
                       style="fill:none;stroke:#ff0000;stroke-width:1;stroke-linecap:butt;stroke-linejoin:miter;stroke-miterlimit:1.45000005;stroke-opacity:1;stroke-dasharray:6, 2;stroke-dashoffset:0" /><path
                       d="m 674.91,313.18 -12.82,2.12 5.19,2.65 0.11,5.83 7.52,-10.6 z"
                       id="path152"
                       style="fill:#ff0000;fill-opacity:1;fill-rule:nonzero;stroke:none" /><path
                       d="m 621.66,336.44 0,3.25 -1,0 0,-3.25 1,0 z m 7.38,3.45 c 0.27,-0.49 0.59,-0.85 0.97,-1.08 0.37,-0.23 0.82,-0.34 1.33,-0.34 0.68,0 1.21,0.24 1.58,0.72 0.37,0.47 0.56,1.15 0.56,2.03 l 0,3.97 -1.08,0 0,-3.93 c 0,-0.63 -0.11,-1.1 -0.34,-1.4 -0.22,-0.3 -0.56,-0.46 -1.02,-0.46 -0.56,0 -1.01,0.19 -1.33,0.56 -0.32,0.37 -0.48,0.88 -0.48,1.52 l 0,3.71 -1.08,0 0,-3.93 c 0,-0.63 -0.11,-1.1 -0.34,-1.4 -0.22,-0.3 -0.57,-0.46 -1.04,-0.46 -0.55,0 -0.99,0.19 -1.31,0.56 -0.32,0.37 -0.48,0.88 -0.48,1.52 l 0,3.71 -1.08,0 0,-6.57 1.08,0 0,1.02 c 0.25,-0.4 0.54,-0.69 0.89,-0.88 0.34,-0.2 0.75,-0.29 1.22,-0.29 0.48,0 0.88,0.12 1.21,0.36 0.34,0.24 0.58,0.59 0.74,1.06 z"
                       id="path154"
                       style="fill:#ff0000;fill-opacity:1;fill-rule:nonzero;stroke:none" /><path
                       d="m 621.59,355.86 c -0.87,0 -1.47,0.1 -1.81,0.29 -0.34,0.2 -0.5,0.54 -0.5,1.02 0,0.39 0.12,0.69 0.38,0.91 0.25,0.23 0.59,0.34 1.02,0.34 0.61,0 1.09,-0.21 1.45,-0.63 0.36,-0.42 0.54,-0.99 0.54,-1.7 l 0,-0.23 -1.08,0 z m 2.15,-0.46 0,3.75 -1.07,0 0,-1 c -0.25,0.4 -0.56,0.69 -0.93,0.89 -0.36,0.19 -0.81,0.29 -1.34,0.29 -0.68,0 -1.21,-0.19 -1.61,-0.57 -0.39,-0.38 -0.59,-0.89 -0.59,-1.51 0,-0.74 0.24,-1.3 0.74,-1.67 0.49,-0.38 1.23,-0.57 2.21,-0.57 l 1.52,0 0,-0.11 c 0,-0.5 -0.17,-0.88 -0.5,-1.15 -0.32,-0.27 -0.78,-0.41 -1.36,-0.41 -0.38,0 -0.75,0.05 -1.1,0.14 -0.36,0.1 -0.71,0.23 -1.03,0.41 l 0,-1 c 0.4,-0.16 0.78,-0.27 1.15,-0.35 0.37,-0.07 0.73,-0.1 1.09,-0.1 0.94,0 1.65,0.24 2.12,0.73 0.47,0.49 0.7,1.23 0.7,2.23 z m 7.33,-1.54 c 0.27,-0.49 0.59,-0.85 0.97,-1.08 0.37,-0.23 0.81,-0.34 1.32,-0.34 0.69,0 1.22,0.24 1.59,0.71 0.37,0.48 0.55,1.16 0.55,2.04 l 0,3.96 -1.07,0 0,-3.92 c 0,-0.63 -0.12,-1.1 -0.34,-1.4 -0.22,-0.31 -0.57,-0.46 -1.02,-0.46 -0.57,0 -1.01,0.19 -1.33,0.56 -0.32,0.37 -0.49,0.88 -0.49,1.52 l 0,3.7 -1.07,0 0,-3.92 c 0,-0.63 -0.12,-1.1 -0.34,-1.4 -0.22,-0.31 -0.57,-0.46 -1.04,-0.46 -0.55,0 -0.99,0.19 -1.31,0.56 -0.32,0.37 -0.49,0.88 -0.49,1.52 l 0,3.7 -1.07,0 0,-6.56 1.07,0 0,1.02 c 0.25,-0.4 0.55,-0.69 0.89,-0.89 0.35,-0.19 0.75,-0.28 1.22,-0.28 0.48,0 0.89,0.12 1.22,0.35 0.34,0.24 0.58,0.6 0.74,1.07 z"
                       id="path156"
                       style="fill:#ff0000;fill-opacity:1;fill-rule:nonzero;stroke:none" /><path
                       d="m 615.89,369.36 3.15,0 0,0.95 -3.15,0 0,-0.95 z m 8.61,-0.96 c 0.56,0.13 1,0.38 1.32,0.76 0.32,0.38 0.47,0.85 0.47,1.42 0,0.86 -0.29,1.53 -0.89,2 -0.59,0.48 -1.43,0.71 -2.53,0.71 -0.36,0 -0.74,-0.03 -1.13,-0.1 -0.39,-0.08 -0.79,-0.19 -1.2,-0.33 l 0,-1.14 c 0.33,0.18 0.68,0.33 1.08,0.43 0.39,0.1 0.79,0.14 1.22,0.14 0.74,0 1.31,-0.14 1.7,-0.43 0.39,-0.29 0.58,-0.72 0.58,-1.28 0,-0.51 -0.18,-0.92 -0.54,-1.21 -0.37,-0.29 -0.87,-0.43 -1.5,-0.43 l -1.04,0 0,-0.97 1.08,0 c 0.58,0 1.02,-0.12 1.33,-0.35 0.31,-0.24 0.47,-0.58 0.47,-1.01 0,-0.45 -0.16,-0.79 -0.48,-1.03 -0.31,-0.24 -0.77,-0.36 -1.36,-0.36 -0.34,0 -0.69,0.03 -1.06,0.1 -0.37,0.07 -0.78,0.17 -1.23,0.32 l 0,-1.05 c 0.46,-0.12 0.89,-0.22 1.28,-0.28 0.39,-0.06 0.76,-0.09 1.1,-0.09 0.91,0 1.62,0.2 2.14,0.61 0.52,0.4 0.78,0.95 0.78,1.65 0,0.49 -0.14,0.9 -0.41,1.24 -0.28,0.33 -0.67,0.56 -1.18,0.68 z m 4.04,3.24 1.23,0 0,1.48 -1.23,0 0,-1.48 z m 4.83,0.48 4.14,0 0,1 -5.56,0 0,-1 c 0.45,-0.46 1.06,-1.08 1.83,-1.86 0.78,-0.79 1.27,-1.3 1.46,-1.53 0.39,-0.41 0.66,-0.77 0.81,-1.07 0.15,-0.29 0.23,-0.58 0.23,-0.87 0,-0.46 -0.17,-0.84 -0.5,-1.14 -0.32,-0.29 -0.75,-0.43 -1.27,-0.43 -0.38,0 -0.77,0.06 -1.18,0.18 -0.41,0.13 -0.85,0.33 -1.32,0.6 l 0,-1.21 c 0.48,-0.18 0.92,-0.33 1.34,-0.42 0.41,-0.1 0.78,-0.15 1.13,-0.15 0.9,0 1.63,0.22 2.17,0.68 0.54,0.45 0.81,1.06 0.81,1.82 0,0.35 -0.06,0.69 -0.2,1.01 -0.14,0.33 -0.38,0.71 -0.73,1.14 -0.11,0.12 -0.42,0.45 -0.94,0.99 -0.52,0.54 -1.26,1.29 -2.22,2.26 z"
                       id="path158"
                       style="fill:#ff0000;fill-opacity:1;fill-rule:nonzero;stroke:none" /><path
                       d="m 710.02,300 68.95,0"
                       id="path160"
                       style="fill:none;stroke:#000000;stroke-width:1;stroke-linecap:butt;stroke-linejoin:miter;stroke-miterlimit:1.45000005;stroke-opacity:1;stroke-dasharray:none" /><path
                       d="m 786.97,300 -12,-5 3,5 -3,5 12,-5 z"
                       id="path162"
                       style="fill:#000000;fill-opacity:1;fill-rule:nonzero;stroke:none" /><path
                       d="m 723.25,261.64 0,0.51 -4.97,0 c 0.05,0.75 0.28,1.32 0.68,1.71 0.4,0.38 0.95,0.58 1.66,0.58 0.42,0 0.82,-0.05 1.21,-0.15 0.39,-0.1 0.78,-0.26 1.17,-0.46 l 0,1.03 c -0.4,0.15 -0.8,0.28 -1.21,0.36 -0.4,0.09 -0.81,0.14 -1.23,0.14 -1.04,0 -1.87,-0.31 -2.48,-0.92 -0.62,-0.61 -0.93,-1.43 -0.93,-2.47 0,-1.08 0.29,-1.93 0.88,-2.56 0.58,-0.63 1.36,-0.94 2.34,-0.94 0.89,0 1.59,0.28 2.1,0.85 0.52,0.57 0.78,1.34 0.78,2.32 z m -1.08,-0.33 c -0.01,-0.58 -0.18,-1.05 -0.5,-1.41 -0.32,-0.35 -0.75,-0.53 -1.28,-0.53 -0.61,0 -1.09,0.17 -1.45,0.52 -0.36,0.34 -0.56,0.82 -0.61,1.44 l 3.84,-0.02 z m 8.3,-2.69 -2.37,3.19 2.48,3.38 -1.26,0 -1.91,-2.58 -1.91,2.58 -1.28,0 2.55,-3.44 -2.33,-3.13 1.27,0 1.75,2.35 1.73,-2.35 1.28,0 z m 7.11,2.6 0,3.97 -1.08,0 0,-3.93 c 0,-0.62 -0.13,-1.09 -0.37,-1.39 -0.24,-0.31 -0.61,-0.47 -1.09,-0.47 -0.58,0 -1.04,0.19 -1.38,0.56 -0.34,0.37 -0.51,0.88 -0.51,1.52 l 0,3.71 -1.07,0 0,-9.13 1.07,0 0,3.58 c 0.26,-0.4 0.57,-0.69 0.92,-0.88 0.35,-0.2 0.75,-0.29 1.21,-0.29 0.75,0 1.32,0.23 1.71,0.69 0.39,0.47 0.59,1.15 0.59,2.06 z m 5.12,0.67 c -0.87,0 -1.47,0.1 -1.81,0.3 -0.34,0.19 -0.51,0.53 -0.51,1.01 0,0.39 0.13,0.69 0.39,0.92 0.25,0.22 0.59,0.33 1.02,0.33 0.6,0 1.09,-0.21 1.45,-0.63 0.35,-0.42 0.53,-0.99 0.53,-1.7 l 0,-0.23 -1.07,0 z m 2.15,-0.45 0,3.75 -1.08,0 0,-1 c -0.25,0.39 -0.55,0.69 -0.92,0.88 -0.36,0.19 -0.81,0.29 -1.34,0.29 -0.68,0 -1.21,-0.19 -1.61,-0.57 -0.4,-0.38 -0.59,-0.89 -0.59,-1.51 0,-0.74 0.24,-1.3 0.74,-1.67 0.49,-0.38 1.23,-0.57 2.21,-0.57 l 1.51,0 0,-0.1 c 0,-0.5 -0.16,-0.89 -0.49,-1.16 -0.33,-0.27 -0.78,-0.41 -1.36,-0.41 -0.38,0 -0.75,0.05 -1.11,0.14 -0.36,0.1 -0.7,0.23 -1.02,0.41 l 0,-1 c 0.4,-0.16 0.78,-0.27 1.15,-0.34 0.37,-0.08 0.73,-0.11 1.08,-0.11 0.95,0 1.66,0.24 2.13,0.73 0.47,0.49 0.7,1.24 0.7,2.24 z m 2.11,1.15 0,-3.97 1.07,0 0,3.94 c 0,0.62 0.13,1.08 0.37,1.39 0.25,0.31 0.61,0.47 1.09,0.47 0.58,0 1.04,-0.18 1.38,-0.55 0.34,-0.37 0.51,-0.88 0.51,-1.53 l 0,-3.72 1.08,0 0,6.57 -1.08,0 0,-1.02 c -0.26,0.41 -0.56,0.71 -0.91,0.9 -0.34,0.19 -0.74,0.29 -1.2,0.29 -0.76,0 -1.34,-0.24 -1.73,-0.71 -0.39,-0.46 -0.58,-1.15 -0.58,-2.06 z m 11.9,-3.78 0,1.03 c -0.3,-0.15 -0.62,-0.27 -0.95,-0.35 -0.33,-0.08 -0.67,-0.12 -1.02,-0.12 -0.53,0 -0.93,0.08 -1.2,0.25 -0.27,0.16 -0.41,0.4 -0.41,0.74 0,0.25 0.1,0.44 0.29,0.58 0.19,0.14 0.58,0.28 1.16,0.4 l 0.36,0.1 c 0.77,0.15 1.32,0.38 1.64,0.68 0.33,0.31 0.49,0.72 0.49,1.25 0,0.62 -0.24,1.1 -0.73,1.46 -0.48,0.35 -1.15,0.53 -1.99,0.53 -0.36,0 -0.72,-0.04 -1.1,-0.1 -0.38,-0.07 -0.78,-0.17 -1.2,-0.31 l 0,-1.12 c 0.4,0.2 0.79,0.36 1.17,0.46 0.39,0.11 0.77,0.16 1.16,0.16 0.5,0 0.89,-0.08 1.16,-0.26 0.28,-0.17 0.42,-0.42 0.42,-0.74 0,-0.29 -0.1,-0.51 -0.3,-0.67 -0.2,-0.16 -0.63,-0.31 -1.3,-0.45 l -0.37,-0.08 c -0.67,-0.15 -1.15,-0.37 -1.45,-0.66 -0.29,-0.29 -0.44,-0.69 -0.44,-1.19 0,-0.62 0.22,-1.1 0.66,-1.43 0.43,-0.34 1.05,-0.5 1.85,-0.5 0.4,0 0.78,0.03 1.13,0.08 0.35,0.06 0.68,0.15 0.97,0.26 z m 3.14,-2.05 0,1.86 2.22,0 0,0.85 -2.22,0 0,3.56 c 0,0.53 0.07,0.87 0.22,1.02 0.15,0.15 0.44,0.23 0.89,0.23 l 1.11,0 0,0.91 -1.11,0 c -0.83,0 -1.41,-0.16 -1.73,-0.47 -0.31,-0.32 -0.47,-0.88 -0.47,-1.69 l 0,-3.56 -0.78,0 0,-0.85 0.78,0 0,-1.86 1.09,0 z m 9.25,4.88 0,0.51 -4.97,0 c 0.06,0.75 0.28,1.32 0.68,1.71 0.4,0.38 0.96,0.58 1.67,0.58 0.41,0 0.82,-0.05 1.21,-0.15 0.39,-0.1 0.78,-0.26 1.16,-0.46 l 0,1.03 c -0.39,0.15 -0.79,0.28 -1.2,0.36 -0.41,0.09 -0.82,0.14 -1.23,0.14 -1.05,0 -1.87,-0.31 -2.49,-0.92 -0.61,-0.61 -0.92,-1.43 -0.92,-2.47 0,-1.08 0.29,-1.93 0.87,-2.56 0.59,-0.63 1.37,-0.94 2.35,-0.94 0.88,0 1.58,0.28 2.1,0.85 0.52,0.57 0.77,1.34 0.77,2.32 z m -1.08,-0.33 c -0.01,-0.58 -0.17,-1.05 -0.5,-1.41 -0.32,-0.35 -0.75,-0.53 -1.28,-0.53 -0.6,0 -1.08,0.17 -1.44,0.52 -0.36,0.34 -0.57,0.82 -0.62,1.44 l 3.84,-0.02 z m 7.17,-1.69 0,-3.56 1.08,0 0,9.13 -1.08,0 0,-0.99 c -0.23,0.39 -0.52,0.68 -0.86,0.87 -0.34,0.19 -0.76,0.29 -1.25,0.29 -0.79,0 -1.44,-0.32 -1.94,-0.96 -0.5,-0.63 -0.75,-1.46 -0.75,-2.5 0,-1.03 0.25,-1.86 0.75,-2.49 0.5,-0.63 1.15,-0.94 1.94,-0.94 0.49,0 0.91,0.09 1.25,0.28 0.34,0.19 0.63,0.48 0.86,0.87 z m -3.67,2.28 c 0,0.8 0.16,1.42 0.48,1.87 0.32,0.45 0.77,0.68 1.35,0.68 0.57,0 1.02,-0.23 1.35,-0.68 0.32,-0.45 0.49,-1.07 0.49,-1.87 0,-0.79 -0.17,-1.41 -0.49,-1.86 -0.33,-0.44 -0.78,-0.67 -1.35,-0.67 -0.58,0 -1.03,0.23 -1.35,0.67 -0.32,0.45 -0.48,1.07 -0.48,1.86 z"
                       id="path164"
                       style="fill:#000000;fill-opacity:1;fill-rule:nonzero;stroke:none" /><path
                       d="m 723.25,275.61 0,0.51 -4.97,0 c 0.05,0.75 0.28,1.32 0.68,1.71 0.4,0.38 0.95,0.57 1.66,0.57 0.42,0 0.82,-0.05 1.21,-0.14 0.39,-0.1 0.78,-0.26 1.17,-0.47 l 0,1.04 c -0.4,0.15 -0.8,0.27 -1.21,0.36 -0.4,0.09 -0.81,0.14 -1.23,0.14 -1.04,0 -1.87,-0.31 -2.48,-0.92 -0.62,-0.61 -0.93,-1.43 -0.93,-2.47 0,-1.08 0.29,-1.93 0.88,-2.56 0.58,-0.63 1.36,-0.94 2.34,-0.94 0.89,0 1.59,0.28 2.1,0.85 0.52,0.56 0.78,1.34 0.78,2.32 z m -1.08,-0.33 c -0.01,-0.58 -0.18,-1.05 -0.5,-1.41 -0.32,-0.35 -0.75,-0.53 -1.28,-0.53 -0.61,0 -1.09,0.17 -1.45,0.52 -0.36,0.34 -0.56,0.82 -0.61,1.43 l 3.84,-0.01 z m 8.3,-2.69 -2.37,3.19 2.48,3.37 -1.26,0 -1.91,-2.57 -1.91,2.57 -1.28,0 2.55,-3.43 -2.33,-3.13 1.27,0 1.75,2.35 1.73,-2.35 1.28,0 z m 7.11,2.6 0,3.96 -1.08,0 0,-3.92 c 0,-0.62 -0.13,-1.09 -0.37,-1.4 -0.24,-0.3 -0.61,-0.46 -1.09,-0.46 -0.58,0 -1.04,0.19 -1.38,0.56 -0.34,0.37 -0.51,0.88 -0.51,1.52 l 0,3.7 -1.07,0 0,-9.12 1.07,0 0,3.58 c 0.26,-0.4 0.57,-0.69 0.92,-0.89 0.35,-0.19 0.75,-0.28 1.21,-0.28 0.75,0 1.32,0.23 1.71,0.69 0.39,0.46 0.59,1.15 0.59,2.06 z m 5.12,0.67 c -0.87,0 -1.47,0.1 -1.81,0.29 -0.34,0.2 -0.51,0.54 -0.51,1.02 0,0.39 0.13,0.69 0.39,0.91 0.25,0.23 0.59,0.34 1.02,0.34 0.6,0 1.09,-0.21 1.45,-0.63 0.35,-0.42 0.53,-0.99 0.53,-1.7 l 0,-0.23 -1.07,0 z m 2.15,-0.46 0,3.75 -1.08,0 0,-1 c -0.25,0.4 -0.55,0.69 -0.92,0.89 -0.36,0.19 -0.81,0.29 -1.34,0.29 -0.68,0 -1.21,-0.19 -1.61,-0.57 -0.4,-0.38 -0.59,-0.89 -0.59,-1.51 0,-0.74 0.24,-1.3 0.74,-1.67 0.49,-0.38 1.23,-0.57 2.21,-0.57 l 1.51,0 0,-0.11 c 0,-0.5 -0.16,-0.88 -0.49,-1.15 -0.33,-0.27 -0.78,-0.41 -1.36,-0.41 -0.38,0 -0.75,0.05 -1.11,0.14 -0.36,0.1 -0.7,0.23 -1.02,0.41 l 0,-1 c 0.4,-0.16 0.78,-0.27 1.15,-0.35 0.37,-0.07 0.73,-0.1 1.08,-0.1 0.95,0 1.66,0.24 2.13,0.73 0.47,0.49 0.7,1.23 0.7,2.23 z m 2.11,1.16 0,-3.97 1.07,0 0,3.94 c 0,0.61 0.13,1.08 0.37,1.39 0.25,0.31 0.61,0.47 1.09,0.47 0.58,0 1.04,-0.19 1.38,-0.56 0.34,-0.37 0.51,-0.87 0.51,-1.52 l 0,-3.72 1.08,0 0,6.56 -1.08,0 0,-1.01 c -0.26,0.4 -0.56,0.7 -0.91,0.9 -0.34,0.19 -0.74,0.29 -1.2,0.29 -0.76,0 -1.34,-0.24 -1.73,-0.71 -0.39,-0.47 -0.58,-1.15 -0.58,-2.06 z m 11.9,-3.78 0,1.03 c -0.3,-0.16 -0.62,-0.27 -0.95,-0.35 -0.33,-0.08 -0.67,-0.12 -1.02,-0.12 -0.53,0 -0.93,0.08 -1.2,0.24 -0.27,0.17 -0.41,0.41 -0.41,0.75 0,0.25 0.1,0.44 0.29,0.58 0.19,0.14 0.58,0.28 1.16,0.4 l 0.36,0.09 c 0.77,0.16 1.32,0.39 1.64,0.69 0.33,0.3 0.49,0.72 0.49,1.25 0,0.62 -0.24,1.1 -0.73,1.45 -0.48,0.36 -1.15,0.54 -1.99,0.54 -0.36,0 -0.72,-0.04 -1.1,-0.11 -0.38,-0.06 -0.78,-0.16 -1.2,-0.3 l 0,-1.13 c 0.4,0.21 0.79,0.37 1.17,0.47 0.39,0.11 0.77,0.16 1.16,0.16 0.5,0 0.89,-0.09 1.16,-0.26 0.28,-0.17 0.42,-0.42 0.42,-0.74 0,-0.29 -0.1,-0.52 -0.3,-0.67 -0.2,-0.16 -0.63,-0.31 -1.3,-0.46 l -0.37,-0.07 c -0.67,-0.15 -1.15,-0.37 -1.45,-0.66 -0.29,-0.29 -0.44,-0.69 -0.44,-1.19 0,-0.62 0.22,-1.1 0.66,-1.43 0.43,-0.34 1.05,-0.5 1.85,-0.5 0.4,0 0.78,0.02 1.13,0.08 0.35,0.06 0.68,0.14 0.97,0.26 z m 3.14,-2.05 0,1.86 2.22,0 0,0.85 -2.22,0 0,3.56 c 0,0.53 0.07,0.87 0.22,1.02 0.15,0.15 0.44,0.23 0.89,0.23 l 1.11,0 0,0.9 -1.11,0 c -0.83,0 -1.41,-0.15 -1.73,-0.46 -0.31,-0.32 -0.47,-0.88 -0.47,-1.69 l 0,-3.56 -0.78,0 0,-0.85 0.78,0 0,-1.86 1.09,0 z m 9.25,4.88 0,0.51 -4.97,0 c 0.06,0.75 0.28,1.32 0.68,1.71 0.4,0.38 0.96,0.57 1.67,0.57 0.41,0 0.82,-0.05 1.21,-0.14 0.39,-0.1 0.78,-0.26 1.16,-0.47 l 0,1.04 c -0.39,0.15 -0.79,0.27 -1.2,0.36 -0.41,0.09 -0.82,0.14 -1.23,0.14 -1.05,0 -1.87,-0.31 -2.49,-0.92 -0.61,-0.61 -0.92,-1.43 -0.92,-2.47 0,-1.08 0.29,-1.93 0.87,-2.56 0.59,-0.63 1.37,-0.94 2.35,-0.94 0.88,0 1.58,0.28 2.1,0.85 0.52,0.56 0.77,1.34 0.77,2.32 z m -1.08,-0.33 c -0.01,-0.58 -0.17,-1.05 -0.5,-1.41 -0.32,-0.35 -0.75,-0.53 -1.28,-0.53 -0.6,0 -1.08,0.17 -1.44,0.52 -0.36,0.34 -0.57,0.82 -0.62,1.43 l 3.84,-0.01 z m 7.17,-1.69 0,-3.56 1.08,0 0,9.12 -1.08,0 0,-0.98 c -0.23,0.39 -0.52,0.67 -0.86,0.87 -0.34,0.19 -0.76,0.29 -1.25,0.29 -0.79,0 -1.44,-0.32 -1.94,-0.96 -0.5,-0.63 -0.75,-1.47 -0.75,-2.5 0,-1.03 0.25,-1.86 0.75,-2.49 0.5,-0.63 1.15,-0.94 1.94,-0.94 0.49,0 0.91,0.09 1.25,0.28 0.34,0.18 0.63,0.48 0.86,0.87 z m -3.67,2.28 c 0,0.79 0.16,1.42 0.48,1.87 0.32,0.45 0.77,0.68 1.35,0.68 0.57,0 1.02,-0.23 1.35,-0.68 0.32,-0.45 0.49,-1.08 0.49,-1.87 0,-0.79 -0.17,-1.41 -0.49,-1.86 -0.33,-0.44 -0.78,-0.67 -1.35,-0.67 -0.58,0 -1.03,0.23 -1.35,0.67 -0.32,0.45 -0.48,1.07 -0.48,1.86 z"
                       id="path166"
                       style="fill:#000000;fill-opacity:1;fill-rule:nonzero;stroke:none" /><path
                       d="m 748,285.15 c -0.61,0 -1.06,0.3 -1.37,0.9 -0.31,0.6 -0.46,1.51 -0.46,2.71 0,1.2 0.15,2.1 0.46,2.7 0.31,0.6 0.76,0.9 1.37,0.9 0.61,0 1.07,-0.3 1.38,-0.9 0.31,-0.6 0.46,-1.5 0.46,-2.7 0,-1.2 -0.15,-2.11 -0.46,-2.71 -0.31,-0.6 -0.77,-0.9 -1.38,-0.9 z m 0,-0.93 c 0.97,0 1.72,0.38 2.25,1.16 0.52,0.78 0.78,1.9 0.78,3.38 0,1.47 -0.26,2.59 -0.78,3.37 -0.53,0.78 -1.28,1.16 -2.25,1.16 -0.98,0 -1.73,-0.38 -2.25,-1.16 -0.51,-0.78 -0.77,-1.9 -0.77,-3.37 0,-1.48 0.26,-2.6 0.77,-3.38 0.52,-0.78 1.27,-1.16 2.25,-1.16 z"
                       id="path168"
                       style="fill:#000000;fill-opacity:1;fill-rule:nonzero;stroke:none" /><path
                       d="m 704.94,313.33 14.31,9.17 14.63,5.62 14.62,1.88 14.62,-1.88 14.63,-5.62 7.58,-4.86"
                       id="path170"
                       style="fill:none;stroke:#ff0000;stroke-width:1;stroke-linecap:butt;stroke-linejoin:miter;stroke-miterlimit:1.45000005;stroke-opacity:1;stroke-dasharray:6, 2;stroke-dashoffset:0" /><path
                       d="m 792.06,313.33 -12.8,2.26 5.22,2.59 0.18,5.83 7.4,-10.68 z"
                       id="path172"
                       style="fill:#ff0000;fill-opacity:1;fill-rule:nonzero;stroke:none" /><path
                       d="m 725.25,341.64 0,0.51 -4.97,0 c 0.05,0.75 0.28,1.32 0.68,1.71 0.4,0.38 0.95,0.58 1.66,0.58 0.42,0 0.82,-0.05 1.21,-0.15 0.39,-0.1 0.78,-0.26 1.17,-0.46 l 0,1.03 c -0.4,0.15 -0.8,0.28 -1.21,0.36 -0.4,0.09 -0.81,0.14 -1.23,0.14 -1.04,0 -1.87,-0.31 -2.48,-0.92 -0.62,-0.61 -0.93,-1.43 -0.93,-2.47 0,-1.08 0.29,-1.93 0.88,-2.56 0.58,-0.63 1.36,-0.94 2.34,-0.94 0.89,0 1.59,0.28 2.1,0.85 0.52,0.57 0.78,1.34 0.78,2.32 z m -1.08,-0.33 c -0.01,-0.58 -0.18,-1.05 -0.5,-1.41 -0.32,-0.35 -0.75,-0.53 -1.28,-0.53 -0.61,0 -1.09,0.17 -1.45,0.52 -0.36,0.34 -0.56,0.82 -0.61,1.44 l 3.84,-0.02 z m 8.3,-2.69 -2.37,3.19 2.48,3.38 -1.26,0 -1.91,-2.58 -1.91,2.58 -1.28,0 2.55,-3.44 -2.33,-3.13 1.27,0 1.75,2.35 1.73,-2.35 1.28,0 z m 7.11,2.6 0,3.97 -1.08,0 0,-3.93 c 0,-0.62 -0.13,-1.09 -0.37,-1.39 -0.24,-0.31 -0.61,-0.47 -1.09,-0.47 -0.58,0 -1.04,0.19 -1.38,0.56 -0.34,0.37 -0.51,0.88 -0.51,1.52 l 0,3.71 -1.07,0 0,-9.13 1.07,0 0,3.58 c 0.26,-0.4 0.57,-0.69 0.92,-0.88 0.35,-0.2 0.75,-0.29 1.21,-0.29 0.75,0 1.32,0.23 1.71,0.69 0.39,0.47 0.59,1.15 0.59,2.06 z m 5.12,0.67 c -0.87,0 -1.47,0.1 -1.81,0.3 -0.34,0.19 -0.51,0.53 -0.51,1.01 0,0.39 0.13,0.69 0.39,0.92 0.25,0.22 0.59,0.33 1.02,0.33 0.6,0 1.09,-0.21 1.45,-0.63 0.35,-0.42 0.53,-0.99 0.53,-1.7 l 0,-0.23 -1.07,0 z m 2.15,-0.45 0,3.75 -1.08,0 0,-1 c -0.25,0.39 -0.55,0.69 -0.92,0.88 -0.36,0.19 -0.81,0.29 -1.34,0.29 -0.68,0 -1.21,-0.19 -1.61,-0.57 -0.4,-0.38 -0.59,-0.89 -0.59,-1.51 0,-0.74 0.24,-1.3 0.74,-1.67 0.49,-0.38 1.23,-0.57 2.21,-0.57 l 1.51,0 0,-0.1 c 0,-0.5 -0.16,-0.89 -0.49,-1.16 -0.33,-0.27 -0.78,-0.41 -1.36,-0.41 -0.38,0 -0.75,0.05 -1.11,0.14 -0.36,0.1 -0.7,0.23 -1.02,0.41 l 0,-1 c 0.4,-0.16 0.78,-0.27 1.15,-0.34 0.37,-0.08 0.73,-0.11 1.08,-0.11 0.95,0 1.66,0.24 2.13,0.73 0.47,0.49 0.7,1.24 0.7,2.24 z m 2.11,1.15 0,-3.97 1.07,0 0,3.94 c 0,0.62 0.13,1.08 0.37,1.39 0.25,0.31 0.61,0.47 1.09,0.47 0.58,0 1.04,-0.18 1.38,-0.55 0.34,-0.37 0.51,-0.88 0.51,-1.53 l 0,-3.72 1.08,0 0,6.57 -1.08,0 0,-1.02 c -0.26,0.41 -0.56,0.71 -0.91,0.9 -0.34,0.19 -0.74,0.29 -1.2,0.29 -0.76,0 -1.34,-0.24 -1.73,-0.71 -0.39,-0.46 -0.58,-1.15 -0.58,-2.06 z m 11.9,-3.78 0,1.03 c -0.3,-0.15 -0.62,-0.27 -0.95,-0.35 -0.33,-0.08 -0.67,-0.12 -1.02,-0.12 -0.53,0 -0.93,0.08 -1.2,0.25 -0.27,0.16 -0.41,0.4 -0.41,0.74 0,0.25 0.1,0.44 0.29,0.58 0.19,0.14 0.58,0.28 1.16,0.4 l 0.36,0.1 c 0.77,0.15 1.32,0.38 1.64,0.68 0.33,0.31 0.49,0.72 0.49,1.25 0,0.62 -0.24,1.1 -0.73,1.46 -0.48,0.35 -1.15,0.53 -1.99,0.53 -0.36,0 -0.72,-0.04 -1.1,-0.1 -0.38,-0.07 -0.78,-0.17 -1.2,-0.31 l 0,-1.12 c 0.4,0.2 0.79,0.36 1.17,0.46 0.39,0.11 0.77,0.16 1.16,0.16 0.5,0 0.89,-0.08 1.16,-0.26 0.28,-0.17 0.42,-0.42 0.42,-0.74 0,-0.29 -0.1,-0.51 -0.3,-0.67 -0.2,-0.16 -0.63,-0.31 -1.3,-0.45 l -0.37,-0.08 c -0.67,-0.15 -1.15,-0.37 -1.45,-0.66 -0.29,-0.29 -0.44,-0.69 -0.44,-1.19 0,-0.62 0.22,-1.1 0.66,-1.43 0.43,-0.34 1.05,-0.5 1.85,-0.5 0.4,0 0.78,0.03 1.13,0.08 0.35,0.06 0.68,0.15 0.97,0.26 z m 3.14,-2.05 0,1.86 2.22,0 0,0.85 -2.22,0 0,3.56 c 0,0.53 0.07,0.87 0.22,1.02 0.15,0.15 0.44,0.23 0.89,0.23 l 1.11,0 0,0.91 -1.11,0 c -0.83,0 -1.41,-0.16 -1.73,-0.47 -0.31,-0.32 -0.47,-0.88 -0.47,-1.69 l 0,-3.56 -0.78,0 0,-0.85 0.78,0 0,-1.86 1.09,0 z m 9.25,4.88 0,0.51 -4.97,0 c 0.06,0.75 0.28,1.32 0.68,1.71 0.4,0.38 0.96,0.58 1.67,0.58 0.41,0 0.82,-0.05 1.21,-0.15 0.39,-0.1 0.78,-0.26 1.16,-0.46 l 0,1.03 c -0.39,0.15 -0.79,0.28 -1.2,0.36 -0.41,0.09 -0.82,0.14 -1.23,0.14 -1.05,0 -1.87,-0.31 -2.49,-0.92 -0.61,-0.61 -0.92,-1.43 -0.92,-2.47 0,-1.08 0.29,-1.93 0.87,-2.56 0.59,-0.63 1.37,-0.94 2.35,-0.94 0.88,0 1.58,0.28 2.1,0.85 0.52,0.57 0.77,1.34 0.77,2.32 z m -1.08,-0.33 c -0.01,-0.58 -0.17,-1.05 -0.5,-1.41 -0.32,-0.35 -0.75,-0.53 -1.28,-0.53 -0.6,0 -1.08,0.17 -1.44,0.52 -0.36,0.34 -0.57,0.82 -0.62,1.44 l 3.84,-0.02 z m 7.17,-1.69 0,-3.56 1.08,0 0,9.13 -1.08,0 0,-0.99 c -0.23,0.39 -0.52,0.68 -0.86,0.87 -0.34,0.19 -0.76,0.29 -1.25,0.29 -0.79,0 -1.44,-0.32 -1.94,-0.96 -0.5,-0.63 -0.75,-1.46 -0.75,-2.5 0,-1.03 0.25,-1.86 0.75,-2.49 0.5,-0.63 1.15,-0.94 1.94,-0.94 0.49,0 0.91,0.09 1.25,0.28 0.34,0.19 0.63,0.48 0.86,0.87 z m -3.67,2.28 c 0,0.8 0.16,1.42 0.48,1.87 0.32,0.45 0.77,0.68 1.35,0.68 0.57,0 1.02,-0.23 1.35,-0.68 0.32,-0.45 0.49,-1.07 0.49,-1.87 0,-0.79 -0.17,-1.41 -0.49,-1.86 -0.33,-0.44 -0.78,-0.67 -1.35,-0.67 -0.58,0 -1.03,0.23 -1.35,0.67 -0.32,0.45 -0.48,1.07 -0.48,1.86 z"
                       id="path174"
                       style="fill:#ff0000;fill-opacity:1;fill-rule:nonzero;stroke:none" /><path
                       d="m 738.22,350.73 0,1.86 2.22,0 0,0.85 -2.22,0 0,3.56 c 0,0.53 0.07,0.87 0.22,1.02 0.14,0.15 0.44,0.23 0.89,0.23 l 1.11,0 0,0.9 -1.11,0 c -0.84,0 -1.41,-0.15 -1.73,-0.46 -0.32,-0.32 -0.48,-0.88 -0.48,-1.69 l 0,-3.56 -0.78,0 0,-0.85 0.78,0 0,-1.86 1.1,0 z m 3.62,1.86 1.08,0 0,6.56 -1.08,0 0,-6.56 z m 0,-2.56 1.08,0 0,1.37 -1.08,0 0,-1.37 z m 7.15,3.56 c -0.12,-0.06 -0.26,-0.11 -0.4,-0.15 -0.14,-0.03 -0.3,-0.05 -0.47,-0.05 -0.61,0 -1.08,0.2 -1.4,0.59 -0.33,0.4 -0.5,0.97 -0.5,1.72 l 0,3.45 -1.07,0 0,-6.56 1.07,0 0,1.02 c 0.23,-0.4 0.53,-0.69 0.9,-0.89 0.36,-0.19 0.8,-0.28 1.32,-0.28 0.08,0 0.16,0 0.25,0.01 0.08,0.01 0.18,0.03 0.28,0.05 l 0.02,1.09 z m 6.75,2.02 0,0.51 -4.97,0 c 0.05,0.75 0.28,1.32 0.68,1.71 0.4,0.38 0.95,0.57 1.66,0.57 0.42,0 0.82,-0.05 1.21,-0.14 0.39,-0.1 0.78,-0.26 1.17,-0.47 l 0,1.04 c -0.4,0.15 -0.8,0.27 -1.21,0.36 -0.4,0.09 -0.81,0.14 -1.23,0.14 -1.04,0 -1.87,-0.31 -2.49,-0.92 -0.61,-0.61 -0.92,-1.43 -0.92,-2.47 0,-1.08 0.29,-1.93 0.88,-2.56 0.58,-0.63 1.36,-0.94 2.34,-0.94 0.89,0 1.59,0.28 2.1,0.85 0.52,0.56 0.78,1.34 0.78,2.32 z m -1.08,-0.33 c -0.01,-0.58 -0.18,-1.05 -0.5,-1.41 -0.32,-0.35 -0.75,-0.53 -1.28,-0.53 -0.61,0 -1.09,0.17 -1.45,0.52 -0.36,0.34 -0.56,0.82 -0.62,1.43 l 3.85,-0.01 z m 7.16,-1.69 0,-3.56 1.08,0 0,9.12 -1.08,0 0,-0.98 c -0.23,0.39 -0.51,0.67 -0.86,0.87 -0.34,0.19 -0.76,0.29 -1.25,0.29 -0.79,0 -1.43,-0.32 -1.93,-0.96 -0.5,-0.63 -0.75,-1.47 -0.75,-2.5 0,-1.03 0.25,-1.86 0.75,-2.49 0.5,-0.63 1.14,-0.94 1.93,-0.94 0.49,0 0.91,0.09 1.25,0.28 0.35,0.18 0.63,0.48 0.86,0.87 z m -3.67,2.28 c 0,0.79 0.16,1.42 0.48,1.87 0.33,0.45 0.78,0.68 1.35,0.68 0.57,0 1.02,-0.23 1.35,-0.68 0.33,-0.45 0.49,-1.08 0.49,-1.87 0,-0.79 -0.16,-1.41 -0.49,-1.86 -0.33,-0.44 -0.78,-0.67 -1.35,-0.67 -0.57,0 -1.02,0.23 -1.35,0.67 -0.32,0.45 -0.48,1.07 -0.48,1.86 z"
                       id="path176"
                       style="fill:#ff0000;fill-opacity:1;fill-rule:nonzero;stroke:none" /><path
                       d="m 738.89,369.36 3.15,0 0,0.95 -3.15,0 0,-0.95 z m 7.55,-4.21 c -0.61,0 -1.06,0.3 -1.37,0.9 -0.31,0.6 -0.46,1.51 -0.46,2.71 0,1.2 0.15,2.1 0.46,2.7 0.31,0.6 0.76,0.9 1.37,0.9 0.61,0 1.07,-0.3 1.38,-0.9 0.31,-0.6 0.46,-1.5 0.46,-2.7 0,-1.2 -0.15,-2.11 -0.46,-2.71 -0.31,-0.6 -0.77,-0.9 -1.38,-0.9 z m 0,-0.93 c 0.97,0 1.72,0.38 2.25,1.16 0.52,0.78 0.78,1.9 0.78,3.38 0,1.47 -0.26,2.59 -0.78,3.37 -0.53,0.78 -1.28,1.16 -2.25,1.16 -0.98,0 -1.73,-0.38 -2.25,-1.16 -0.51,-0.78 -0.77,-1.9 -0.77,-3.37 0,-1.48 0.26,-2.6 0.77,-3.38 0.52,-0.78 1.27,-1.16 2.25,-1.16 z m 5.1,7.42 1.23,0 0,1.48 -1.23,0 0,-1.48 z m 3.84,1.3 0,-1.08 c 0.31,0.14 0.61,0.25 0.91,0.33 0.3,0.07 0.61,0.1 0.91,0.1 0.78,0 1.37,-0.26 1.79,-0.78 0.41,-0.53 0.64,-1.33 0.69,-2.4 -0.22,0.34 -0.5,0.6 -0.85,0.78 -0.35,0.18 -0.74,0.26 -1.16,0.26 -0.88,0 -1.57,-0.26 -2.08,-0.78 -0.51,-0.53 -0.77,-1.26 -0.77,-2.18 0,-0.9 0.27,-1.62 0.8,-2.16 0.53,-0.54 1.24,-0.81 2.12,-0.81 1.01,0 1.79,0.38 2.32,1.16 0.54,0.78 0.81,1.9 0.81,3.38 0,1.38 -0.33,2.48 -0.99,3.3 -0.65,0.82 -1.53,1.23 -2.64,1.23 -0.3,0 -0.6,-0.02 -0.9,-0.08 -0.3,-0.06 -0.62,-0.15 -0.96,-0.27 z m 2.36,-3.71 c 0.54,0 0.96,-0.18 1.27,-0.54 0.31,-0.37 0.47,-0.87 0.47,-1.5 0,-0.63 -0.16,-1.12 -0.47,-1.49 -0.31,-0.36 -0.73,-0.55 -1.27,-0.55 -0.53,0 -0.95,0.19 -1.25,0.55 -0.31,0.37 -0.46,0.86 -0.46,1.49 0,0.63 0.15,1.13 0.46,1.5 0.3,0.36 0.72,0.54 1.25,0.54 z"
                       id="path178"
                       style="fill:#ff0000;fill-opacity:1;fill-rule:nonzero;stroke:none" /></g></g><g
                   id="g180" /></g></g></g></g><g
           id="g182"><g
             id="g184"><g
               clip-path="url(#clipPath188)"
               id="g186" /></g></g></g></g></g></svg>