<?xml version="1.0" encoding="UTF-8"?><svg xmlns="http://www.w3.org/2000/svg" xmlns:xlink="http://www.w3.org/1999/xlink" fill-opacity="1" color-rendering="auto" color-interpolation="auto" text-rendering="auto" stroke="black" stroke-linecap="square" width="330" stroke-miterlimit="10" shape-rendering="auto" stroke-opacity="1" fill="black" stroke-dasharray="none" font-weight="normal" stroke-width="1" height="333" font-family="'Dialog'" font-style="normal" stroke-linejoin="miter" font-size="12" stroke-dashoffset="0" image-rendering="auto">
  <!--Generated by ySVG-->
  <defs id="genericDefs"/>
  <g>
    <defs id="defs1">
      <linearGradient x1="417" gradientUnits="userSpaceOnUse" x2="517" y1="202" y2="252" id="linearGradient1" spreadMethod="reflect">
        <stop stop-opacity="1" stop-color="rgb(232,238,247)" offset="0%"/>
        <stop stop-opacity="1" stop-color="rgb(183,201,227)" offset="100%"/>
      </linearGradient>
      <linearGradient x1="317" gradientUnits="userSpaceOnUse" x2="417" y1="362" y2="412" id="linearGradient2" spreadMethod="reflect">
        <stop stop-opacity="1" stop-color="rgb(232,238,247)" offset="0%"/>
        <stop stop-opacity="1" stop-color="rgb(183,201,227)" offset="100%"/>
      </linearGradient>
      <linearGradient x1="417" gradientUnits="userSpaceOnUse" x2="517" y1="282" y2="332" id="linearGradient3" spreadMethod="reflect">
        <stop stop-opacity="1" stop-color="rgb(232,238,247)" offset="0%"/>
        <stop stop-opacity="1" stop-color="rgb(183,201,227)" offset="100%"/>
      </linearGradient>
      <linearGradient x1="517" gradientUnits="userSpaceOnUse" x2="617" y1="362" y2="412" id="linearGradient4" spreadMethod="reflect">
        <stop stop-opacity="1" stop-color="rgb(232,238,247)" offset="0%"/>
        <stop stop-opacity="1" stop-color="rgb(183,201,227)" offset="100%"/>
      </linearGradient>
      <linearGradient x1="417" gradientUnits="userSpaceOnUse" x2="517" y1="455" y2="505" id="linearGradient5" spreadMethod="reflect">
        <stop stop-opacity="1" stop-color="rgb(232,238,247)" offset="0%"/>
        <stop stop-opacity="1" stop-color="rgb(183,201,227)" offset="100%"/>
      </linearGradient>
      <clipPath clipPathUnits="userSpaceOnUse" id="clipPath1">
        <path d="M0 0 L330 0 L330 333 L0 333 L0 0 Z"/>
      </clipPath>
      <clipPath clipPathUnits="userSpaceOnUse" id="clipPath2">
        <path d="M302 187 L632 187 L632 520 L302 520 L302 187 Z"/>
      </clipPath>
    </defs>
    <g fill="url(#linearGradient1)" transform="matrix(1,0,0,1,-302,-187)" stroke="url(#linearGradient1)">
      <path d="M417 202 L517 202 L517 252 L417 252 Z" stroke="none" clip-path="url(#clipPath2)"/>
    </g>
    <g stroke-linecap="butt" transform="matrix(1,0,0,1,-302,-187)" stroke-miterlimit="1.45">
      <path fill="none" d="M417 202 L517 202 L517 252 L417 252 Z" clip-path="url(#clipPath2)"/>
      <text x="445.9355" xml:space="preserve" y="224.1699" clip-path="url(#clipPath2)" font-family="sans-serif" stroke="none">Corpus</text>
      <text x="442.373" xml:space="preserve" y="238.1387" clip-path="url(#clipPath2)" font-family="sans-serif" stroke="none">creation</text>
    </g>
    <g fill="url(#linearGradient2)" transform="matrix(1,0,0,1,-302,-187)" stroke="url(#linearGradient2)">
      <path d="M317 362 L417 362 L417 412 L317 412 Z" stroke="none" clip-path="url(#clipPath2)"/>
    </g>
    <g stroke-linecap="butt" transform="matrix(1,0,0,1,-302,-187)" stroke-miterlimit="1.45">
      <path fill="none" d="M317 362 L417 362 L417 412 L317 412 Z" clip-path="url(#clipPath2)"/>
      <text x="329.3008" xml:space="preserve" y="377.1855" clip-path="url(#clipPath2)" font-family="sans-serif" stroke="none">Fine-grained</text>
      <text x="334.9668" xml:space="preserve" y="391.1543" clip-path="url(#clipPath2)" font-family="sans-serif" stroke="none">readability</text>
      <text x="340.7002" xml:space="preserve" y="405.123" clip-path="url(#clipPath2)" font-family="sans-serif" stroke="none">measure</text>
    </g>
    <g fill="url(#linearGradient3)" transform="matrix(1,0,0,1,-302,-187)" stroke="url(#linearGradient3)">
      <path d="M417 282 L517 282 L517 332 L417 332 Z" stroke="none" clip-path="url(#clipPath2)"/>
    </g>
    <g stroke-linecap="butt" transform="matrix(1,0,0,1,-302,-187)" stroke-miterlimit="1.45">
      <path fill="none" d="M417 282 L517 282 L517 332 L417 332 Z" clip-path="url(#clipPath2)"/>
      <text x="426.2891" xml:space="preserve" y="304.1699" clip-path="url(#clipPath2)" font-family="sans-serif" stroke="none">Simplification</text>
      <text x="445.1592" xml:space="preserve" y="318.1387" clip-path="url(#clipPath2)" font-family="sans-serif" stroke="none">scoring</text>
    </g>
    <g fill="url(#linearGradient4)" transform="matrix(1,0,0,1,-302,-187)" stroke="url(#linearGradient4)">
      <path d="M517 362 L617 362 L617 412 L517 412 Z" stroke="none" clip-path="url(#clipPath2)"/>
    </g>
    <g stroke-linecap="butt" transform="matrix(1,0,0,1,-302,-187)" stroke-miterlimit="1.45">
      <path fill="none" d="M517 362 L617 362 L617 412 L517 412 Z" clip-path="url(#clipPath2)"/>
      <text x="553.7402" xml:space="preserve" y="384.1699" clip-path="url(#clipPath2)" font-family="sans-serif" stroke="none">Text</text>
      <text x="540.1699" xml:space="preserve" y="398.1387" clip-path="url(#clipPath2)" font-family="sans-serif" stroke="none">rewriting</text>
    </g>
    <g fill="url(#linearGradient5)" transform="matrix(1,0,0,1,-302,-187)" stroke="url(#linearGradient5)">
      <path d="M417 455 L517 455 L517 505 L417 505 Z" stroke="none" clip-path="url(#clipPath2)"/>
    </g>
    <g stroke-linecap="butt" transform="matrix(1,0,0,1,-302,-187)" stroke-miterlimit="1.45">
      <path fill="none" d="M417 455 L517 455 L517 505 L417 505 Z" clip-path="url(#clipPath2)"/>
      <text x="449.1729" xml:space="preserve" y="477.1699" clip-path="url(#clipPath2)" font-family="sans-serif" stroke="none">Demo</text>
      <text x="433.9033" xml:space="preserve" y="491.1387" clip-path="url(#clipPath2)" font-family="sans-serif" stroke="none">application</text>
    </g>
    <g stroke-linecap="butt" transform="matrix(1,0,0,1,-302,-187)" stroke-miterlimit="1.45">
      <path fill="none" d="M467 251.9609 L467 273.9798" clip-path="url(#clipPath2)"/>
    </g>
    <g stroke-linecap="butt" transform="matrix(1,0,0,1,-302,-187)" stroke-miterlimit="1.45">
      <path d="M467 281.9798 L472 269.9798 L467 272.9798 L462 269.9798 Z" stroke="none" clip-path="url(#clipPath2)"/>
      <path fill="none" d="M435.7744 331.9805 L404.5111 356.9911" clip-path="url(#clipPath2)"/>
      <path d="M398.2642 361.9887 L410.7581 358.3967 L405.292 356.3664 L404.5111 350.588 Z" clip-path="url(#clipPath2)" stroke="none"/>
      <path fill="none" d="M498.2256 331.9805 L529.4889 356.9911" clip-path="url(#clipPath2)"/>
      <path d="M535.7358 361.9887 L529.4889 350.588 L528.708 356.3664 L523.2419 358.3967 Z" clip-path="url(#clipPath2)" stroke="none"/>
      <path fill="none" d="M467 331.9617 L467 447.0258" clip-path="url(#clipPath2)"/>
      <path d="M467 455.0258 L472 443.0258 L467 446.0258 L462 443.0258 Z" clip-path="url(#clipPath2)" stroke="none"/>
      <path fill="none" d="M540.1201 411.9983 L499.7427 449.5493" clip-path="url(#clipPath2)"/>
      <path d="M493.8845 454.9974 L506.0768 450.4866 L500.4749 448.8683 L499.2667 443.1639 Z" clip-path="url(#clipPath2)" stroke="none"/>
    </g>
  </g>
</svg>
